<svg xmlns="http://www.w3.org/2000/svg" xmlns:xlink="http://www.w3.org/1999/xlink" version="1.1" xml:space="preserve" viewBox="12.5 37.68 65 14.64">
	<path d="M 71.266 44.277 c -7.112 5.253 -17.446 8.042 -26.331 8.042 c -12.452 0 -23.672 -4.605 -32.146 -12.258 c -0.67 -0.605 -0.065 -1.427 0.735 -0.951 c 9.166 5.318 20.473 8.539 32.168 8.539 c 7.891 0 16.56 -1.643 24.537 -5.015 C 71.417 42.093 72.433 43.412 71.266 44.277 z M 74.227 40.904 c -0.908 -1.167 -6.01 -0.562 -8.323 -0.281 c -0.692 0.086 -0.8 -0.519 -0.173 -0.973 c 4.064 -2.854 10.744 -2.032 11.523 -1.081 c 0.778 0.973 -0.216 7.653 -4.021 10.852 c -0.584 0.497 -1.146 0.238 -0.886 -0.411 C 73.211 46.871 75.135 42.05 74.227 40.904 z" style="stroke: none; stroke-width: 1; stroke-dasharray: none; stroke-linecap: butt; stroke-linejoin: miter; stroke-miterlimit: 10; fill: rgb(0,0,0); fill-rule: nonzero; opacity: 1;" transform=" matrix(1 0 0 1 0 0) " stroke-linecap="round"/>
</svg>