<svg xmlns="http://www.w3.org/2000/svg" xmlns:xlink="http://www.w3.org/1999/xlink" width="500" zoomAndPan="magnify" viewBox="0 0 375 374.999991" height="500" preserveAspectRatio="xMidYMid meet" version="1.2"><defs><clipPath id="bfd34ff245"><path d="M 54 44 L 353 44 L 353 307 L 54 307 Z M 54 44 "/></clipPath><clipPath id="bee8840b12"><path d="M -115.644531 160.339844 L 183 -138.304688 L 481.644531 160.339844 L 183 458.980469 Z M -115.644531 160.339844 "/></clipPath><clipPath id="cee3cf9210"><path d="M -115.644531 160.339844 L 183 -138.304688 L 481.644531 160.339844 L 183 458.980469 Z M -115.644531 160.339844 "/></clipPath><clipPath id="c4e2f85df1"><path d="M -115.644531 160.339844 L 183 -138.304688 L 481.644531 160.339844 L 183 458.980469 Z M -115.644531 160.339844 "/></clipPath></defs><g id="7bbb53f070"><g clip-rule="nonzero" clip-path="url(#bfd34ff245)"><g clip-rule="nonzero" clip-path="url(#bee8840b12)"><g clip-rule="nonzero" clip-path="url(#cee3cf9210)"><g clip-rule="nonzero" clip-path="url(#c4e2f85df1)"><path style="fill:none;stroke-width:15;stroke-linecap:round;stroke-linejoin:miter;stroke:#000000;stroke-opacity:1;stroke-miterlimit:4;" d="M 7.498568 8.219332 L 7.501839 88.10225 C 7.501839 94.728362 12.872064 100.098588 19.501447 100.095317 L 170.538215 100.098588 C 177.170868 100.098588 182.541093 94.728362 182.541093 88.10225 L 182.537823 74.683228 C 182.537823 68.050575 177.167597 62.680349 170.534944 62.680349 L 56.209978 62.680349 C 49.583866 62.680349 44.207099 57.310124 44.207099 50.677471 L 44.207099 7.499813 " transform="matrix(0.597187,-0.597187,0.597187,0.597187,116.336123,183.514882)"/></g></g></g></g><path style="fill:none;stroke-width:15;stroke-linecap:round;stroke-linejoin:miter;stroke:#000000;stroke-opacity:1;stroke-miterlimit:4;" d="M 54.17397 345.338486 L 54.17397 276.761771 C 54.17397 275.106088 52.828149 273.760268 51.172467 273.760268 L 10.501868 273.760268 C 8.841561 273.760268 7.500365 272.419072 7.500365 270.758765 L 7.500365 10.502085 C 7.500365 8.841777 8.841561 7.500582 10.501868 7.500582 L 427.544306 7.500582 C 429.204613 7.500582 430.545809 8.841777 430.545809 10.502085 L 430.545809 270.758765 C 430.545809 272.419072 429.204613 273.760268 427.544306 273.760268 L 143.506842 273.760268 " transform="matrix(0.844629,0,0,0.844629,2.223568,56.719479)"/><path style="fill:none;stroke-width:15;stroke-linecap:round;stroke-linejoin:miter;stroke:#000000;stroke-opacity:1;stroke-miterlimit:4;" d="M 7.500734 7.498378 L 100.687814 7.501779 " transform="matrix(0.559042,-0.631269,0.631269,0.559042,61.237342,348.359478)"/></g></svg>